<svg width="512" height="512" viewBox="0 0 512 512" xmlns="http://www.w3.org/2000/svg">
  <defs>
    <linearGradient id="bg-gradient" x1="0%" y1="0%" x2="100%" y2="100%">
      <stop offset="0%" style="stop-color:#3b82f6;stop-opacity:1" />
      <stop offset="100%" style="stop-color:#8b5cf6;stop-opacity:1" />
    </linearGradient>
    <linearGradient id="heart-gradient" x1="0%" y1="0%" x2="100%" y2="100%">
      <stop offset="0%" style="stop-color:#ffffff;stop-opacity:1" />
      <stop offset="100%" style="stop-color:#f1f5f9;stop-opacity:1" />
    </linearGradient>
  </defs>
  
  <!-- Background -->
  <rect width="512" height="512" rx="96" fill="url(#bg-gradient)"/>
  
  <!-- Main Heart Icon -->
  <path d="M256 416c-17.36 0-33.47-6.18-45.49-17.4C194.33 384.6 128 314.78 128 256c0-53.02 42.98-96 96-96 23.84 0 45.67 8.73 62.83 23.18C303.99 168.73 325.82 160 349.67 160c53.02 0 96 42.98 96 96 0 58.78-66.33 128.6-82.51 142.6C351.14 409.82 335.03 416 318.67 416H256z" fill="url(#heart-gradient)" stroke="rgba(255,255,255,0.2)" stroke-width="4"/>
  
  <!-- AI Spark Elements -->
  <circle cx="180" cy="200" r="8" fill="rgba(255,255,255,0.8)"/>
  <circle cx="332" cy="220" r="6" fill="rgba(255,255,255,0.6)"/>
  <circle cx="200" cy="320" r="4" fill="rgba(255,255,255,0.7)"/>
  <circle cx="320" cy="300" r="5" fill="rgba(255,255,255,0.5)"/>
  
  <!-- Connection Lines -->
  <path d="M180 200 L200 220 L220 200" stroke="rgba(255,255,255,0.3)" stroke-width="2" fill="none"/>
  <path d="M320 220 L340 240 L360 220" stroke="rgba(255,255,255,0.3)" stroke-width="2" fill="none"/>
  
  <!-- Kindra Text -->
  <text x="256" y="480" font-family="system-ui, -apple-system, sans-serif" font-size="36" font-weight="600" text-anchor="middle" fill="white" fill-opacity="0.9">Kindra</text>
</svg>